<svg width="29" height="27" viewBox="0 0 29 27" fill="none" xmlns="http://www.w3.org/2000/svg">
<path d="M27.6492 14.3235L18.4452 25.5138C18.1494 25.8719 17.7798 26.0509 17.4101 26.0509C17.0405 26.0509 16.6709 25.8719 16.3751 25.5138C15.7837 24.7976 15.7837 23.6786 16.3751 22.9624L23.0977 15.0254H1.59766C0.784444 15.0254 0 14.0102 0 13.0254C0 12.0407 0.784444 11.0254 1.59766 11.0254H23.0977L16.3751 3.08851C15.7837 2.37234 15.7837 1.25331 16.3751 0.537132C16.9666 -0.179044 17.8907 -0.179044 18.4821 0.537132L27.6862 11.7274C28.2407 12.4883 28.2407 13.6521 27.6492 14.3235Z" fill="#9A9A9A"/>
</svg>
